<mxfile host="Electron" modified="2024-05-30T17:46:47.855Z" agent="Mozilla/5.0 (Macintosh; Intel Mac OS X 10_15_7) AppleWebKit/537.36 (KHTML, like Gecko) draw.io/24.4.0 Chrome/120.0.6099.109 Electron/28.1.0 Safari/537.36" etag="5Jnnmc4lXYEjFv6KD_Fk" version="24.4.0" type="device">
  <diagram name="Page-1" id="4fdmP6uMu_TLqce988Cb">
    <mxGraphModel dx="1460" dy="1192" grid="1" gridSize="10" guides="1" tooltips="1" connect="1" arrows="1" fold="1" page="1" pageScale="1" pageWidth="1100" pageHeight="850" math="0" shadow="0">
      <root>
        <mxCell id="0" />
        <mxCell id="1" parent="0" />
        <mxCell id="8pUhcFzyWtxsckkWeD-o-1" value="&lt;div&gt;&lt;br&gt;&lt;/div&gt;&lt;div&gt;&lt;br&gt;&lt;/div&gt;DHIS" style="strokeWidth=2;html=1;shape=mxgraph.flowchart.database;whiteSpace=wrap;" parent="1" vertex="1">
          <mxGeometry x="170" y="20" width="570" height="110" as="geometry" />
        </mxCell>
        <mxCell id="mXdR4Mj0qIjhQUkfLVy--17" style="edgeStyle=orthogonalEdgeStyle;rounded=0;orthogonalLoop=1;jettySize=auto;html=1;exitX=1;exitY=0.5;exitDx=0;exitDy=0;entryX=0;entryY=0.5;entryDx=0;entryDy=0;" parent="1" source="8pUhcFzyWtxsckkWeD-o-28" target="mXdR4Mj0qIjhQUkfLVy--15" edge="1">
          <mxGeometry relative="1" as="geometry" />
        </mxCell>
        <mxCell id="mXdR4Mj0qIjhQUkfLVy--21" style="edgeStyle=orthogonalEdgeStyle;rounded=0;orthogonalLoop=1;jettySize=auto;html=1;exitX=0.5;exitY=1;exitDx=0;exitDy=0;" parent="1" source="8pUhcFzyWtxsckkWeD-o-28" target="8pUhcFzyWtxsckkWeD-o-32" edge="1">
          <mxGeometry relative="1" as="geometry" />
        </mxCell>
        <mxCell id="8pUhcFzyWtxsckkWeD-o-28" value="&lt;div&gt;&lt;span style=&quot;background-color: initial;&quot;&gt;Analysis&lt;/span&gt;&lt;br&gt;&lt;/div&gt;" style="shape=process;whiteSpace=wrap;html=1;backgroundOutline=1;" parent="1" vertex="1">
          <mxGeometry x="285" y="470" width="120" height="60" as="geometry" />
        </mxCell>
        <mxCell id="8pUhcFzyWtxsckkWeD-o-32" value="&lt;div&gt;ROUTINE&lt;/div&gt;&lt;div&gt;REPORTs&lt;/div&gt;" style="shape=note;whiteSpace=wrap;html=1;backgroundOutline=1;darkOpacity=0.05;" parent="1" vertex="1">
          <mxGeometry x="405" y="610" width="130" height="110" as="geometry" />
        </mxCell>
        <mxCell id="8pUhcFzyWtxsckkWeD-o-34" value="EXTRACT&lt;div&gt;TRANSFORM&lt;div&gt;LOAD&lt;/div&gt;&lt;/div&gt;" style="shape=step;perimeter=stepPerimeter;whiteSpace=wrap;html=1;fixedSize=1;direction=south;" parent="1" vertex="1">
          <mxGeometry x="170" y="150" width="100" height="130" as="geometry" />
        </mxCell>
        <mxCell id="mXdR4Mj0qIjhQUkfLVy--9" value="EXTRACT&lt;div&gt;TRANSFORM&lt;div&gt;LOAD&lt;/div&gt;&lt;/div&gt;" style="shape=step;perimeter=stepPerimeter;whiteSpace=wrap;html=1;fixedSize=1;direction=south;" parent="1" vertex="1">
          <mxGeometry x="405" y="160" width="100" height="130" as="geometry" />
        </mxCell>
        <mxCell id="mXdR4Mj0qIjhQUkfLVy--10" value="EXTRACT&lt;div&gt;TRANSFORM&lt;div&gt;LOAD&lt;/div&gt;&lt;/div&gt;" style="shape=step;perimeter=stepPerimeter;whiteSpace=wrap;html=1;fixedSize=1;direction=south;" parent="1" vertex="1">
          <mxGeometry x="640" y="160" width="100" height="130" as="geometry" />
        </mxCell>
        <mxCell id="mXdR4Mj0qIjhQUkfLVy--11" value="" style="group" parent="1" vertex="1" connectable="0">
          <mxGeometry x="340" y="330" width="230" height="80" as="geometry" />
        </mxCell>
        <mxCell id="8pUhcFzyWtxsckkWeD-o-10" value="" style="shape=parallelogram;html=1;strokeWidth=1;perimeter=parallelogramPerimeter;whiteSpace=wrap;rounded=1;arcSize=12;size=0.23;dashed=1;dashPattern=1 2;" parent="mXdR4Mj0qIjhQUkfLVy--11" vertex="1">
          <mxGeometry width="210" height="60" as="geometry" />
        </mxCell>
        <mxCell id="8pUhcFzyWtxsckkWeD-o-18" value="FACILITY LOCATIONS" style="shape=parallelogram;html=1;strokeWidth=1;perimeter=parallelogramPerimeter;whiteSpace=wrap;rounded=1;arcSize=12;size=0.23;dashed=1;dashPattern=1 2;" parent="mXdR4Mj0qIjhQUkfLVy--11" vertex="1">
          <mxGeometry x="10" y="10" width="210" height="60" as="geometry" />
        </mxCell>
        <mxCell id="8pUhcFzyWtxsckkWeD-o-19" value="&lt;div&gt;Facility Locations &amp;amp;&lt;/div&gt;Spatial Hierarchies" style="shape=parallelogram;html=1;strokeWidth=2;perimeter=parallelogramPerimeter;whiteSpace=wrap;rounded=1;arcSize=12;size=0.23;" parent="mXdR4Mj0qIjhQUkfLVy--11" vertex="1">
          <mxGeometry x="20" y="20" width="210" height="60" as="geometry" />
        </mxCell>
        <mxCell id="mXdR4Mj0qIjhQUkfLVy--12" value="" style="group" parent="1" vertex="1" connectable="0">
          <mxGeometry x="575" y="330" width="230" height="80" as="geometry" />
        </mxCell>
        <mxCell id="8pUhcFzyWtxsckkWeD-o-11" value="" style="shape=parallelogram;html=1;strokeWidth=1;perimeter=parallelogramPerimeter;whiteSpace=wrap;rounded=1;arcSize=12;size=0.23;dashed=1;dashPattern=1 1;" parent="mXdR4Mj0qIjhQUkfLVy--12" vertex="1">
          <mxGeometry width="210" height="60" as="geometry" />
        </mxCell>
        <mxCell id="8pUhcFzyWtxsckkWeD-o-16" value="" style="shape=parallelogram;html=1;strokeWidth=1;perimeter=parallelogramPerimeter;whiteSpace=wrap;rounded=1;arcSize=12;size=0.23;dashed=1;dashPattern=1 1;" parent="mXdR4Mj0qIjhQUkfLVy--12" vertex="1">
          <mxGeometry x="10" y="10" width="210" height="60" as="geometry" />
        </mxCell>
        <mxCell id="8pUhcFzyWtxsckkWeD-o-17" value="ADMINISTRATIVE&lt;div&gt;BOUNDARIES&lt;/div&gt;" style="shape=parallelogram;html=1;strokeWidth=2;perimeter=parallelogramPerimeter;whiteSpace=wrap;rounded=1;arcSize=12;size=0.23;" parent="mXdR4Mj0qIjhQUkfLVy--12" vertex="1">
          <mxGeometry x="20" y="20" width="210" height="60" as="geometry" />
        </mxCell>
        <mxCell id="mXdR4Mj0qIjhQUkfLVy--13" value="" style="group" parent="1" vertex="1" connectable="0">
          <mxGeometry x="115" y="300" width="210" height="110" as="geometry" />
        </mxCell>
        <mxCell id="8pUhcFzyWtxsckkWeD-o-4" value="&lt;div&gt;&lt;br&gt;&lt;/div&gt;&lt;div&gt;&lt;br&gt;&lt;/div&gt;&lt;div&gt;&lt;b&gt;FACILITY DATA&lt;/b&gt;&lt;/div&gt;" style="strokeWidth=2;html=1;shape=mxgraph.flowchart.database;whiteSpace=wrap;dashed=1;" parent="mXdR4Mj0qIjhQUkfLVy--13" vertex="1">
          <mxGeometry width="190" height="90" as="geometry" />
        </mxCell>
        <mxCell id="8pUhcFzyWtxsckkWeD-o-21" value="&lt;div&gt;&lt;br&gt;&lt;/div&gt;&lt;div&gt;&lt;br&gt;&lt;/div&gt;&lt;div&gt;&lt;b&gt;FACILITY DATA&lt;/b&gt;&lt;/div&gt;" style="strokeWidth=2;html=1;shape=mxgraph.flowchart.database;whiteSpace=wrap;dashed=1;" parent="mXdR4Mj0qIjhQUkfLVy--13" vertex="1">
          <mxGeometry x="10" y="10" width="190" height="90" as="geometry" />
        </mxCell>
        <mxCell id="8pUhcFzyWtxsckkWeD-o-22" value="&lt;div&gt;&lt;b&gt;&lt;br&gt;&lt;/b&gt;&lt;/div&gt;&lt;b&gt;&lt;i&gt;UP TO DATE&lt;/i&gt;&lt;/b&gt;&lt;div&gt;&lt;b&gt;FACILITY DATA&lt;/b&gt;&lt;/div&gt;" style="strokeWidth=2;html=1;shape=mxgraph.flowchart.database;whiteSpace=wrap;spacing=4;" parent="mXdR4Mj0qIjhQUkfLVy--13" vertex="1">
          <mxGeometry x="20" y="20" width="190" height="90" as="geometry" />
        </mxCell>
        <mxCell id="mXdR4Mj0qIjhQUkfLVy--15" value="Visualization" style="shape=process;whiteSpace=wrap;html=1;backgroundOutline=1;" parent="1" vertex="1">
          <mxGeometry x="510" y="470" width="120" height="60" as="geometry" />
        </mxCell>
        <mxCell id="mXdR4Mj0qIjhQUkfLVy--16" style="edgeStyle=orthogonalEdgeStyle;rounded=0;orthogonalLoop=1;jettySize=auto;html=1;exitX=0.5;exitY=1;exitDx=0;exitDy=0;exitPerimeter=0;" parent="1" source="8pUhcFzyWtxsckkWeD-o-22" target="8pUhcFzyWtxsckkWeD-o-28" edge="1">
          <mxGeometry relative="1" as="geometry" />
        </mxCell>
        <mxCell id="mXdR4Mj0qIjhQUkfLVy--19" style="edgeStyle=orthogonalEdgeStyle;rounded=0;orthogonalLoop=1;jettySize=auto;html=1;exitX=0.5;exitY=1;exitDx=0;exitDy=0;" parent="1" source="8pUhcFzyWtxsckkWeD-o-19" target="8pUhcFzyWtxsckkWeD-o-28" edge="1">
          <mxGeometry relative="1" as="geometry" />
        </mxCell>
        <mxCell id="mXdR4Mj0qIjhQUkfLVy--20" style="edgeStyle=orthogonalEdgeStyle;rounded=0;orthogonalLoop=1;jettySize=auto;html=1;entryX=1;entryY=0.5;entryDx=0;entryDy=0;" parent="1" source="8pUhcFzyWtxsckkWeD-o-17" target="mXdR4Mj0qIjhQUkfLVy--15" edge="1">
          <mxGeometry relative="1" as="geometry" />
        </mxCell>
        <mxCell id="mXdR4Mj0qIjhQUkfLVy--22" style="edgeStyle=orthogonalEdgeStyle;rounded=0;orthogonalLoop=1;jettySize=auto;html=1;exitX=0.5;exitY=1;exitDx=0;exitDy=0;entryX=0.5;entryY=0;entryDx=0;entryDy=0;entryPerimeter=0;" parent="1" source="mXdR4Mj0qIjhQUkfLVy--15" target="8pUhcFzyWtxsckkWeD-o-32" edge="1">
          <mxGeometry relative="1" as="geometry" />
        </mxCell>
      </root>
    </mxGraphModel>
  </diagram>
</mxfile>
